<?xml version="1.0" encoding="UTF-8" standalone="no"?>
<svg
   version="1.1"
   id="Layer_1"
   x="0px"
   y="0px"
   viewBox="0 0 122.88 119.72"
   style="enable-background:new 0 0 122.88 119.72"
   xml:space="preserve"
   sodipodi:docname="collapse.svg"
   inkscape:version="1.2.1 (9c6d41e410, 2022-07-14)"
   xmlns:inkscape="http://www.inkscape.org/namespaces/inkscape"
   xmlns:sodipodi="http://sodipodi.sourceforge.net/DTD/sodipodi-0.dtd"
   xmlns="http://www.w3.org/2000/svg"
   xmlns:svg="http://www.w3.org/2000/svg"><defs
     id="defs15145" /><sodipodi:namedview
     id="namedview15143"
     pagecolor="#ffffff"
     bordercolor="#000000"
     borderopacity="0.25"
     inkscape:showpageshadow="2"
     inkscape:pageopacity="0.0"
     inkscape:pagecheckerboard="0"
     inkscape:deskcolor="#d1d1d1"
     showgrid="false"
     inkscape:zoom="8.5783494"
     inkscape:cx="61.43373"
     inkscape:cy="59.801714"
     inkscape:window-width="2560"
     inkscape:window-height="1377"
     inkscape:window-x="-8"
     inkscape:window-y="-8"
     inkscape:window-maximized="1"
     inkscape:current-layer="Layer_1" /><g
     id="g15140"
     style="fill:#cccccc"><path
       d="M22.72,0h77.45c6.25,0,11.93,2.56,16.05,6.67c4.11,4.11,6.67,9.79,6.67,16.05v74.29c0,6.25-2.56,11.93-6.67,16.05 l-0.32,0.29c-4.09,3.94-9.64,6.38-15.73,6.38H22.72c-6.25,0-11.93-2.56-16.05-6.67l-0.3-0.32C2.43,108.64,0,103.09,0,97.01V22.71 c0-6.25,2.55-11.93,6.67-16.05C10.78,2.55,16.46,0,22.72,0L22.72,0z M39.92,65.83c-3.3,0-5.97-2.67-5.97-5.97 c0-3.3,2.67-5.97,5.97-5.97h43.05c3.3,0,5.97,2.67,5.97,5.97c0,3.3-2.67,5.97-5.97,5.97H39.92L39.92,65.83z M100.16,10.24H22.72 c-3.43,0-6.55,1.41-8.81,3.67c-2.26,2.26-3.67,5.38-3.67,8.81v74.29c0,3.33,1.31,6.35,3.43,8.59l0.24,0.22 c2.26,2.26,5.38,3.67,8.81,3.67h77.45c3.32,0,6.35-1.31,8.59-3.44l0.21-0.23c2.26-2.26,3.67-5.38,3.67-8.81V22.71 c0-3.42-1.41-6.54-3.67-8.81C106.71,11.65,103.59,10.24,100.16,10.24L100.16,10.24z"
       id="path15138"
       style="fill:#cccccc" /></g></svg>
