<?xml version="1.0" encoding="UTF-8" standalone="no"?>
<svg
   version="1.1"
   id="Layer_1"
   x="0px"
   y="0px"
   viewBox="0 0 107.07 122.88"
   style="enable-background:new 0 0 107.07 122.88"
   xml:space="preserve"
   sodipodi:docname="new-file2.svg"
   inkscape:version="1.2.1 (9c6d41e410, 2022-07-14)"
   xmlns:inkscape="http://www.inkscape.org/namespaces/inkscape"
   xmlns:sodipodi="http://sodipodi.sourceforge.net/DTD/sodipodi-0.dtd"
   xmlns="http://www.w3.org/2000/svg"
   xmlns:svg="http://www.w3.org/2000/svg"><defs
     id="defs15185" /><sodipodi:namedview
     id="namedview15183"
     pagecolor="#ffffff"
     bordercolor="#000000"
     borderopacity="0.25"
     inkscape:showpageshadow="2"
     inkscape:pageopacity="0.0"
     inkscape:pagecheckerboard="0"
     inkscape:deskcolor="#d1d1d1"
     showgrid="false"
     inkscape:zoom="8.3577476"
     inkscape:cx="53.483309"
     inkscape:cy="61.499823"
     inkscape:window-width="2560"
     inkscape:window-height="1377"
     inkscape:window-x="-8"
     inkscape:window-y="-8"
     inkscape:window-maximized="1"
     inkscape:current-layer="Layer_1" /><g
     id="g15180"
     style="fill:#cccccc"
     transform="matrix(0.88825118,0,0,0.9006816,5.9824731,6.1021225)"><path
       d="m 31.54,86.95 c -1.74,0 -3.16,-1.43 -3.16,-3.19 0,-1.76 1.41,-3.19 3.16,-3.19 h 20.5 c 1.74,0 3.16,1.43 3.16,3.19 0,1.76 -1.41,3.19 -3.16,3.19 h -20.5 z m 0,-44.68 c -1.74,0 -3.15,-1.41 -3.15,-3.15 0,-1.74 1.41,-3.15 3.15,-3.15 h 41.61 c 1.74,0 3.15,1.41 3.15,3.15 0,1.74 -1.41,3.15 -3.15,3.15 H 31.54 Z m 25.31,74.31 c 1.74,0 3.15,1.41 3.15,3.15 0,1.74 -1.41,3.15 -3.15,3.15 H 7.33 c -2.02,0 -3.85,-0.82 -5.18,-2.15 C 0.82,119.4 0,117.57 0,115.55 V 7.33 C 0,5.31 0.82,3.48 2.15,2.15 3.48,0.82 5.31,0 7.33,0 h 90.02 c 2.02,0 3.85,0.82 5.18,2.15 1.33,1.33 2.15,3.16 2.15,5.18 V 72.6 c 0,1.74 -1.41,3.15 -3.15,3.15 -1.74,0 -3.15,-1.41 -3.15,-3.15 V 7.33 C 98.38,7.05 98.26,6.79 98.08,6.6 97.89,6.41 97.63,6.3 97.35,6.3 H 7.33 C 7.05,6.3 6.79,6.42 6.6,6.6 6.42,6.8 6.3,7.05 6.3,7.33 v 108.21 c 0,0.28 0.12,0.54 0.3,0.73 0.19,0.19 0.45,0.3 0.73,0.3 H 56.85 Z M 83.35,83.7 c 0,-1.73 1.41,-3.14 3.14,-3.14 1.73,0 3.14,1.41 3.14,3.14 l -0.04,14.36 14.34,0.04 c 1.73,0 3.14,1.41 3.14,3.14 0,1.73 -1.41,3.14 -3.14,3.14 l -14.35,-0.04 -0.04,14.34 c 0,1.73 -1.41,3.14 -3.14,3.14 -1.73,0 -3.14,-1.41 -3.14,-3.14 l 0.04,-14.35 -14.34,-0.04 c -1.73,0 -3.14,-1.41 -3.14,-3.14 0,-1.73 1.41,-3.14 3.14,-3.14 L 83.32,98.05 83.35,83.7 Z M 31.54,64.59 c -1.74,0 -3.15,-1.41 -3.15,-3.15 0,-1.74 1.41,-3.15 3.15,-3.15 h 41.61 c 1.74,0 3.15,1.41 3.15,3.15 0,1.74 -1.41,3.15 -3.15,3.15 H 31.54 Z"
       id="path15178"
       style="fill:#cccccc" /></g></svg>
