<?xml version="1.0" encoding="UTF-8" standalone="no"?>
<!-- Generator: Adobe Illustrator 19.1.0, SVG Export Plug-In . SVG Version: 6.00 Build 0)  -->

<svg
   version="1.1"
   id="Capa_1"
   x="0px"
   y="0px"
   viewBox="0 0 489.935 489.935"
   style="enable-background:new 0 0 489.935 489.935;"
   xml:space="preserve"
   sodipodi:docname="refresh.svg"
   inkscape:version="1.2.1 (9c6d41e410, 2022-07-14)"
   xmlns:inkscape="http://www.inkscape.org/namespaces/inkscape"
   xmlns:sodipodi="http://sodipodi.sourceforge.net/DTD/sodipodi-0.dtd"
   xmlns="http://www.w3.org/2000/svg"
   xmlns:svg="http://www.w3.org/2000/svg"><defs
   id="defs15087" /><sodipodi:namedview
   id="namedview15085"
   pagecolor="#ffffff"
   bordercolor="#000000"
   borderopacity="0.25"
   inkscape:showpageshadow="2"
   inkscape:pageopacity="0.0"
   inkscape:pagecheckerboard="0"
   inkscape:deskcolor="#d1d1d1"
   showgrid="false"
   inkscape:zoom="2.0961964"
   inkscape:cx="244.72897"
   inkscape:cy="244.72897"
   inkscape:window-width="2560"
   inkscape:window-height="1377"
   inkscape:window-x="-8"
   inkscape:window-y="-8"
   inkscape:window-maximized="1"
   inkscape:current-layer="Capa_1" />
<g
   id="g15052"
   style="fill:#cccccc">
	<path
   d="M278.235,33.267c-116.7,0-211.6,95-211.6,211.7v0.7l-41.9-63.1c-4.1-6.2-12.5-7.9-18.7-3.8c-6.2,4.1-7.9,12.5-3.8,18.7   l60.8,91.5c2.2,3.3,5.7,5.4,9.6,5.9c0.6,0.1,1.1,0.1,1.7,0.1c3.3,0,6.5-1.2,9-3.5l84.5-76.1c5.5-5,6-13.5,1-19.1   c-5-5.5-13.5-6-19.1-1l-56.1,50.7v-1c0-101.9,82.8-184.7,184.6-184.7s184.7,82.8,184.7,184.7s-82.8,184.7-184.6,184.7   c-49.3,0-95.7-19.2-130.5-54.1c-5.3-5.3-13.8-5.3-19.1,0c-5.3,5.3-5.3,13.8,0,19.1c40,40,93.1,62,149.6,62   c116.6,0,211.6-94.9,211.6-211.7S394.935,33.267,278.235,33.267z"
   id="path15050"
   style="fill:#cccccc" />
</g>
<g
   id="g15054">
</g>
<g
   id="g15056">
</g>
<g
   id="g15058">
</g>
<g
   id="g15060">
</g>
<g
   id="g15062">
</g>
<g
   id="g15064">
</g>
<g
   id="g15066">
</g>
<g
   id="g15068">
</g>
<g
   id="g15070">
</g>
<g
   id="g15072">
</g>
<g
   id="g15074">
</g>
<g
   id="g15076">
</g>
<g
   id="g15078">
</g>
<g
   id="g15080">
</g>
<g
   id="g15082">
</g>
</svg>
